<svg width="106" height="60" viewBox="0 0 106 60" fill="none" xmlns="http://www.w3.org/2000/svg">
<path d="M36.4062 49.1013C36.4221 49.1017 36.4378 49.1048 36.4523 49.1105C36.4668 49.1162 36.4799 49.1244 36.4907 49.1345L36.7089 49.343C36.5395 49.5117 36.3303 49.6467 36.0954 49.7386C35.8203 49.839 35.5239 49.8874 35.2257 49.8808C34.9454 49.8858 34.667 49.8406 34.4077 49.7481C34.1738 49.6631 33.9637 49.5355 33.7915 49.3738C33.6158 49.2061 33.4805 49.0095 33.3935 48.7957C33.2982 48.5573 33.2511 48.3064 33.2544 48.0541C33.2505 47.8002 33.3014 47.5478 33.4044 47.3102C33.4996 47.095 33.6433 46.8984 33.827 46.7321C34.0132 46.5689 34.2359 46.4407 34.4813 46.3554C34.7499 46.2649 35.0358 46.2199 35.3238 46.2227C35.5913 46.217 35.8574 46.2581 36.1063 46.3435C36.3222 46.4249 36.5205 46.5379 36.6925 46.6776L36.5098 46.9003C36.4972 46.916 36.4815 46.9296 36.4635 46.9406C36.4419 46.9534 36.4159 46.9593 36.3899 46.9571C36.3616 46.9554 36.3343 46.9473 36.3108 46.9335L36.2126 46.8742L36.0763 46.7984C36.0175 46.7703 35.9564 46.7457 35.8936 46.725C35.8128 46.6998 35.7298 46.68 35.6455 46.6657C35.5385 46.6486 35.4299 46.6407 35.3211 46.642C35.1137 46.6398 34.9079 46.6736 34.7158 46.7415C34.5367 46.8045 34.3749 46.8998 34.2414 47.0211C34.1054 47.1502 34.0007 47.3016 33.9333 47.4665C33.8565 47.6551 33.8187 47.8541 33.8215 48.0541C33.8182 48.2573 33.8561 48.4594 33.9333 48.6511C33.9998 48.8146 34.1027 48.9652 34.2359 49.0942C34.3608 49.2145 34.5156 49.3085 34.6885 49.369C34.8665 49.4331 35.0575 49.4654 35.2502 49.4638C35.3615 49.4653 35.4727 49.4589 35.5828 49.4448C35.7626 49.4258 35.9351 49.3715 36.0872 49.2861C36.1635 49.2424 36.2356 49.1932 36.3026 49.1392C36.3306 49.116 36.3675 49.1025 36.4062 49.1013Z" fill="#AFB1B8"/>
<path d="M42.7043 48.0537C42.7077 48.3051 42.6578 48.5548 42.5571 48.7905C42.4682 49.0042 42.3283 49.1992 42.1464 49.3625C41.9645 49.5259 41.7449 49.6539 41.502 49.7381C40.9682 49.915 40.3781 49.915 39.8443 49.7381C39.6029 49.6526 39.3847 49.5243 39.2036 49.3614C39.0218 49.1951 38.8808 48.9984 38.7891 48.7834C38.5927 48.3062 38.5927 47.7846 38.7891 47.3074C38.8822 47.0922 39.023 46.895 39.2036 46.727C39.3862 46.5693 39.6043 46.4459 39.8443 46.3646C40.3774 46.1845 40.9688 46.1845 41.502 46.3646C41.7442 46.45 41.9633 46.5783 42.1454 46.7412C42.3249 46.9059 42.4648 47.1 42.5571 47.3122C42.6581 47.5494 42.708 47.8008 42.7043 48.0537ZM42.1318 48.0537C42.1361 47.8526 42.101 47.6523 42.0282 47.4614C41.9671 47.2979 41.8677 47.1471 41.7364 47.0184C41.6086 46.8967 41.4512 46.8012 41.2757 46.7389C40.8878 46.6093 40.4584 46.6093 40.0706 46.7389C39.895 46.8012 39.7376 46.8967 39.6098 47.0184C39.4767 47.1463 39.3763 47.2973 39.3154 47.4614C39.1766 47.8471 39.1766 48.2603 39.3154 48.646C39.3769 48.8098 39.4772 48.9607 39.6098 49.089C39.7378 49.2099 39.8952 49.3046 40.0706 49.3661C40.4591 49.4924 40.8871 49.4924 41.2757 49.3661C41.451 49.3046 41.6084 49.2099 41.7364 49.089C41.8672 48.96 41.9664 48.8093 42.0282 48.646C42.1013 48.4551 42.1364 48.2548 42.1318 48.0537Z" fill="#AFB1B8"/>
<path d="M47.0013 48.6748L47.0585 48.8075C47.0803 48.7601 47.0994 48.7175 47.1212 48.6748C47.142 48.6303 47.1657 48.5868 47.1921 48.5445L48.5853 46.344C48.6126 46.3061 48.6371 46.2824 48.6644 46.2753C48.7015 46.2655 48.7402 46.2615 48.7789 46.2634H49.1906V49.8426H48.7026V47.2109C48.7026 47.1778 48.7026 47.1399 48.7026 47.0996C48.6999 47.0586 48.6999 47.0175 48.7026 46.9764L47.3012 49.2078C47.2834 49.2412 47.2549 49.2695 47.2191 49.2892C47.1833 49.309 47.1418 49.3194 47.0994 49.3191H47.0203C46.9779 49.3196 46.9362 49.3094 46.9003 49.2896C46.8645 49.2698 46.8361 49.2414 46.8186 49.2078L45.3763 46.9622C45.3763 47.0049 45.3763 47.0475 45.3763 47.0901C45.3763 47.1328 45.3763 47.1707 45.3763 47.2038V49.8355H44.9046V46.2634H45.3163C45.355 46.2615 45.3937 46.2655 45.4308 46.2753C45.4646 46.2898 45.4916 46.3141 45.5072 46.344L46.9304 48.5469C46.9583 48.5876 46.9821 48.6304 47.0013 48.6748Z" fill="#AFB1B8"/>
<path d="M52.2443 48.497V49.8377H51.699V46.2633H52.915C53.1445 46.2595 53.3734 46.2858 53.5939 46.3415C53.7704 46.3849 53.934 46.4609 54.0737 46.5641C54.1948 46.6609 54.2882 46.781 54.3464 46.9147C54.4107 47.0605 54.4422 47.2157 54.4391 47.3719C54.4415 47.5286 54.4072 47.6841 54.3382 47.829C54.2726 47.9661 54.1719 48.0885 54.0437 48.1867C53.9038 48.2943 53.7394 48.375 53.5612 48.4236C53.3489 48.4825 53.1269 48.5105 52.9041 48.5065L52.2443 48.497ZM52.2443 48.1133H52.9041C53.0474 48.1149 53.1901 48.0965 53.3267 48.0588C53.4394 48.0258 53.5432 47.9735 53.632 47.9048C53.714 47.8393 53.7774 47.7582 53.8174 47.6679C53.8621 47.5724 53.8843 47.4702 53.8829 47.3671C53.8892 47.2678 53.8706 47.1684 53.8282 47.0759C53.7858 46.9835 53.7207 46.9002 53.6375 46.8318C53.4292 46.6905 53.1676 46.622 52.9041 46.6399H52.2443V48.1133Z" fill="#AFB1B8"/>
<path d="M59.573 49.8425H59.1422C59.099 49.844 59.0566 49.8322 59.0223 49.8093C58.9913 49.787 58.967 49.7586 58.9514 49.7264L58.5806 48.8617H56.7184L56.334 49.7264C56.3198 49.758 56.2963 49.7858 56.2658 49.807C56.2312 49.8312 56.1876 49.8438 56.1431 49.8425H55.7123L57.3482 46.2629H57.9153L59.573 49.8425ZM56.8738 48.5135H58.4115L57.7626 47.0566C57.713 46.947 57.6721 46.8346 57.64 46.7202L57.5772 46.9073C57.5582 46.9642 57.5363 47.0163 57.5173 47.0589L56.8738 48.5135Z" fill="#AFB1B8"/>
<path d="M61.9287 46.2796C61.9613 46.2951 61.9893 46.317 62.0105 46.3436L64.3962 49.0418C64.3962 48.9992 64.3962 48.9565 64.3962 48.9163C64.3962 48.876 64.3962 48.8357 64.3962 48.7978V46.263H64.8842V49.8425H64.6116C64.5728 49.8436 64.5344 49.8362 64.4998 49.8212C64.4661 49.8041 64.4365 49.7816 64.4125 49.7549L62.0296 47.059C62.0322 47.1 62.0322 47.1411 62.0296 47.1822C62.0296 47.2224 62.0296 47.258 62.0296 47.2912V49.8425H61.5416V46.263H61.8306C61.8643 46.2622 61.8978 46.2679 61.9287 46.2796Z" fill="#AFB1B8"/>
<path d="M68.903 48.4188V49.8402H68.3577V48.4188L66.85 46.2631H67.338C67.3801 46.2609 67.4216 46.2718 67.4553 46.2938C67.4849 46.3168 67.5098 46.3441 67.5289 46.3744L68.4722 47.765C68.5104 47.8242 68.5431 47.8787 68.5704 47.9308C68.5977 47.9829 68.6195 48.0327 68.6386 48.0824L68.7094 47.9284C68.7359 47.8721 68.7669 47.8175 68.8021 47.765L69.7319 46.3649C69.7514 46.337 69.7753 46.3115 69.8028 46.2891C69.8351 46.2646 69.8771 46.2518 69.92 46.2536H70.4135L68.903 48.4188Z" fill="#AFB1B8"/>
<path d="M46.7313 40.256C46.9685 40.2821 47.2085 40.3034 47.4511 40.3223C51.13 38.8925 54.2421 36.5522 56.3986 33.5941C58.5551 30.6359 59.6602 27.1911 59.5758 23.6903L55.5215 20.1677C56.3458 23.895 55.9602 27.7481 54.4078 31.2958C52.8554 34.8435 50.1975 37.946 46.7313 40.256Z" fill="#AFB1B8"/>
<path d="M45.2836 40.0922L45.3927 40.1111C49.0966 37.8093 51.9205 34.5949 53.4992 30.8837C55.0779 27.1726 55.3388 23.1352 54.2483 19.2938L48.4736 14.2766C50.8093 18.4006 51.7495 23.016 51.1847 27.586C50.62 32.1561 48.5737 36.4929 45.2836 40.0922Z" fill="#AFB1B8"/>
<path d="M64.8679 27.8267C63.8868 31.6732 61.504 35.1424 58.0735 37.719C57.0716 38.4756 55.9909 39.1497 54.8453 39.7325C57.6388 39.0191 60.2064 37.7579 62.3502 36.0461C64.4939 34.3342 66.1566 32.2175 67.2099 29.8591L64.8679 27.8267Z" fill="#AFB1B8"/>
<path d="M63.949 27.2602L60.6146 24.363C60.5508 27.6661 59.47 30.8941 57.4845 33.7115C55.499 36.5289 52.6813 38.8328 49.3242 40.3838H49.3406C50.0887 40.3836 50.8362 40.3448 51.579 40.2678C54.7164 39.1552 57.488 37.385 59.6464 35.1153C61.8049 32.8456 63.283 30.147 63.949 27.2602Z" fill="#AFB1B8"/>
<path d="M45.7662 12.1609L41.7883 8.69995C38.2322 9.89391 35.1737 11.9928 33.0133 14.722C30.8529 17.4512 29.6911 20.6835 29.68 23.9959V23.9959C29.6933 27.656 31.1112 31.2077 33.7092 34.0888C36.3072 36.9699 39.937 39.016 44.024 39.903C47.6724 36.041 49.8085 31.2687 50.1218 26.2798C50.4351 21.2908 48.9094 16.3449 45.7662 12.1609Z" fill="#AFB1B8"/>
<path d="M73.14 26.7272C73.1256 22.3847 71.1338 18.2237 67.5996 15.1531C64.0655 12.0824 59.2763 10.3519 54.2783 10.3394C51.9687 10.3373 49.6788 10.7076 47.5248 11.4314L71.8804 32.5925C72.7143 30.722 73.1414 28.7332 73.14 26.7272Z" fill="#AFB1B8"/>
</svg>
