<svg width="106" height="60" viewBox="0 0 106 60" fill="none" xmlns="http://www.w3.org/2000/svg">
<path d="M24.1462 21.1028H24.1433C21.7453 21.1028 19.8013 22.8304 19.8013 24.9615V24.964C19.8013 27.0951 21.7453 28.8227 24.1433 28.8227H24.1462C26.5442 28.8227 28.4882 27.0951 28.4882 24.964V24.9615C28.4882 22.8304 26.5442 21.1028 24.1462 21.1028Z" fill="#2196F3"/>
<path d="M56.195 19.8693C56.1882 16.9093 54.8623 14.0722 52.5074 11.979C50.1525 9.88568 46.9604 8.70667 43.6297 8.69995V8.69995C40.298 8.70533 37.1045 9.88374 34.7484 11.9772C32.3922 14.0706 31.0655 16.9084 31.0587 19.8693V36.1921C31.0587 36.1921 56.1922 33.7044 56.195 19.8718V19.8693Z" fill="#2196F3"/>
<path d="M11 41.5495C11.006 43.6091 11.9291 45.5828 13.5676 47.0394C15.2061 48.496 17.4267 49.317 19.7442 49.3231C22.0612 49.317 24.2814 48.4963 25.9197 47.0403C27.5581 45.5843 28.4816 43.6112 28.4884 41.552V30.1943C28.4884 30.1943 11 31.9266 11 41.5495ZM19.7442 43.5844C19.2913 43.5844 18.8486 43.4651 18.472 43.2415C18.0955 43.0179 17.802 42.7001 17.6287 42.3282C17.4554 41.9564 17.41 41.5472 17.4984 41.1525C17.5867 40.7577 17.8048 40.3951 18.125 40.1105C18.4453 39.8259 18.8533 39.6321 19.2975 39.5536C19.7416 39.4751 20.202 39.5154 20.6205 39.6694C21.0389 39.8234 21.3965 40.0843 21.6481 40.4189C21.8997 40.7535 22.034 41.147 22.034 41.5495C22.0351 41.8173 21.9767 42.0828 21.8622 42.3306C21.7476 42.5783 21.5791 42.8036 21.3664 42.9933C21.1536 43.1831 20.9008 43.3337 20.6224 43.4364C20.3441 43.5392 20.0456 43.5921 19.7442 43.5921V43.5844Z" fill="#2196F3"/>
<path d="M37.4177 42.4636H35.7302V44.2068H34.8513V39.9412H37.6286V40.6531H35.7302V41.7546H37.4177V42.4636ZM41.6423 42.1707C41.6423 42.5906 41.5681 42.9587 41.4196 43.2751C41.2712 43.5916 41.0583 43.8357 40.7809 44.0076C40.5056 44.1794 40.1891 44.2654 39.8317 44.2654C39.4782 44.2654 39.1628 44.1804 38.8854 44.0105C38.6081 43.8406 38.3932 43.5984 38.2409 43.2839C38.0886 42.9675 38.0114 42.6042 38.0095 42.1941V41.9832C38.0095 41.5632 38.0847 41.1941 38.235 40.8757C38.3874 40.5554 38.6013 40.3103 38.8766 40.1404C39.154 39.9685 39.4704 39.8826 39.8259 39.8826C40.1813 39.8826 40.4968 39.9685 40.7722 40.1404C41.0495 40.3103 41.2634 40.5554 41.4138 40.8757C41.5661 41.1941 41.6423 41.5623 41.6423 41.9802V42.1707ZM40.7516 41.9773C40.7516 41.53 40.6716 41.1902 40.5114 40.9578C40.3513 40.7253 40.1227 40.6091 39.8259 40.6091C39.5309 40.6091 39.3034 40.7244 39.1432 40.9548C38.9831 41.1833 38.902 41.5193 38.9001 41.9626V42.1707C38.9001 42.6062 38.9802 42.9441 39.1403 43.1843C39.3005 43.4246 39.5309 43.5447 39.8317 43.5447C40.1266 43.5447 40.3532 43.4294 40.5114 43.199C40.6696 42.9666 40.7497 42.6287 40.7516 42.1853V41.9773ZM44.4929 43.0876C44.4929 42.9216 44.4343 42.7947 44.3171 42.7068C44.1999 42.6169 43.989 42.5232 43.6843 42.4255C43.3796 42.3259 43.1384 42.2283 42.9606 42.1326C42.4763 41.8708 42.2341 41.5183 42.2341 41.075C42.2341 40.8445 42.2985 40.6394 42.4274 40.4597C42.5583 40.2781 42.7448 40.1365 42.987 40.0349C43.2311 39.9333 43.5046 39.8826 43.8073 39.8826C44.112 39.8826 44.3835 39.9382 44.6218 40.0496C44.86 40.1589 45.0446 40.3142 45.1755 40.5154C45.3083 40.7166 45.3747 40.9451 45.3747 41.2009H44.4958C44.4958 41.0056 44.4343 40.8542 44.3112 40.7468C44.1882 40.6375 44.0153 40.5828 43.7927 40.5828C43.5778 40.5828 43.4108 40.6287 43.2917 40.7205C43.1725 40.8103 43.113 40.9294 43.113 41.0779C43.113 41.2166 43.1823 41.3328 43.321 41.4265C43.4616 41.5203 43.6677 41.6082 43.9391 41.6902C44.4391 41.8406 44.8034 42.0271 45.0319 42.2498C45.2604 42.4724 45.3747 42.7498 45.3747 43.0818C45.3747 43.4509 45.235 43.741 44.9557 43.9519C44.6765 44.1609 44.3005 44.2654 43.8278 44.2654C43.4997 44.2654 43.2009 44.2058 42.9313 44.0867C42.6618 43.9656 42.4557 43.8005 42.3132 43.5916C42.1725 43.3826 42.1022 43.1404 42.1022 42.865H42.9841C42.9841 43.3357 43.2653 43.571 43.8278 43.571C44.0368 43.571 44.1999 43.5291 44.3171 43.4451C44.4343 43.3591 44.4929 43.24 44.4929 43.0876ZM49.1833 40.6531H47.8766V44.2068H46.9977V40.6531H45.7087V39.9412H49.1833V40.6531ZM52.2536 42.3582H50.5661V43.5007H52.5466V44.2068H49.6872V39.9412H52.5407V40.6531H50.5661V41.6697H52.2536V42.3582ZM54.6413 42.6453H53.9411V44.2068H53.0622V39.9412H54.6472C55.1511 39.9412 55.5397 40.0535 55.8132 40.2781C56.0866 40.5027 56.2233 40.8201 56.2233 41.2302C56.2233 41.5212 56.1599 41.7644 56.0329 41.9597C55.9079 42.1531 55.7175 42.3074 55.4616 42.4226L56.3845 44.1658V44.2068H55.4411L54.6413 42.6453ZM53.9411 41.9333H54.6501C54.8708 41.9333 55.0417 41.8777 55.1628 41.7664C55.2839 41.6531 55.3444 41.4978 55.3444 41.3005C55.3444 41.0994 55.2868 40.9412 55.1716 40.8259C55.0583 40.7107 54.8835 40.6531 54.6472 40.6531H53.9411V41.9333ZM59.2673 42.7039V44.2068H58.3884V39.9412H60.0524C60.3727 39.9412 60.654 39.9998 60.8962 40.1169C61.1403 40.2341 61.3278 40.4011 61.4587 40.6179C61.5895 40.8328 61.655 41.0779 61.655 41.3533C61.655 41.7712 61.5114 42.1013 61.2243 42.3435C60.9391 42.5837 60.5436 42.7039 60.0378 42.7039H59.2673ZM59.2673 41.9919H60.0524C60.2849 41.9919 60.4616 41.9373 60.5827 41.8279C60.7057 41.7185 60.7673 41.5623 60.7673 41.3591C60.7673 41.1501 60.7057 40.9812 60.5827 40.8523C60.4597 40.7234 60.2897 40.657 60.0729 40.6531H59.2673V41.9919ZM64.8278 42.3582H63.1403V43.5007H65.1208V44.2068H62.2614V39.9412H65.1149V40.6531H63.1403V41.6697H64.8278V42.3582ZM68.9059 40.6531H67.5993V44.2068H66.7204V40.6531H65.4313V39.9412H68.9059V40.6531ZM71.9763 42.3582H70.2888V43.5007H72.2692V44.2068H69.4099V39.9412H72.2634V40.6531H70.2888V41.6697H71.9763V42.3582ZM74.364 42.6453H73.6638V44.2068H72.7849V39.9412H74.3698C74.8737 39.9412 75.2624 40.0535 75.5358 40.2781C75.8093 40.5027 75.946 40.8201 75.946 41.2302C75.946 41.5212 75.8825 41.7644 75.7556 41.9597C75.6306 42.1531 75.4401 42.3074 75.1843 42.4226L76.1071 44.1658V44.2068H75.1638L74.364 42.6453ZM73.6638 41.9333H74.3727C74.5934 41.9333 74.7643 41.8777 74.8854 41.7664C75.0065 41.6531 75.0671 41.4978 75.0671 41.3005C75.0671 41.0994 75.0095 40.9412 74.8942 40.8259C74.7809 40.7107 74.6061 40.6531 74.3698 40.6531H73.6638V41.9333ZM78.8288 43.0876C78.8288 42.9216 78.7702 42.7947 78.653 42.7068C78.5358 42.6169 78.3249 42.5232 78.0202 42.4255C77.7155 42.3259 77.4743 42.2283 77.2966 42.1326C76.8122 41.8708 76.57 41.5183 76.57 41.075C76.57 40.8445 76.6345 40.6394 76.7634 40.4597C76.8942 40.2781 77.0807 40.1365 77.3229 40.0349C77.5671 39.9333 77.8405 39.8826 78.1432 39.8826C78.4479 39.8826 78.7194 39.9382 78.9577 40.0496C79.196 40.1589 79.3806 40.3142 79.5114 40.5154C79.6442 40.7166 79.7106 40.9451 79.7106 41.2009H78.8317C78.8317 41.0056 78.7702 40.8542 78.6472 40.7468C78.5241 40.6375 78.3513 40.5828 78.1286 40.5828C77.9138 40.5828 77.7468 40.6287 77.6276 40.7205C77.5085 40.8103 77.4489 40.9294 77.4489 41.0779C77.4489 41.2166 77.5182 41.3328 77.6569 41.4265C77.7975 41.5203 78.0036 41.6082 78.2751 41.6902C78.7751 41.8406 79.1393 42.0271 79.3679 42.2498C79.5964 42.4724 79.7106 42.7498 79.7106 43.0818C79.7106 43.4509 79.571 43.741 79.2917 43.9519C79.0124 44.1609 78.6364 44.2654 78.1638 44.2654C77.8356 44.2654 77.5368 44.2058 77.2673 44.0867C76.9977 43.9656 76.7917 43.8005 76.6491 43.5916C76.5085 43.3826 76.4382 43.1404 76.4382 42.865H77.32C77.32 43.3357 77.6013 43.571 78.1638 43.571C78.3727 43.571 78.5358 43.5291 78.653 43.4451C78.7702 43.3591 78.8288 43.24 78.8288 43.0876Z" fill="#2196F3"/>
</svg>
